<mxfile host="app.diagrams.net" agent="Mozilla/5.0 (Windows NT 10.0; Win64; x64; rv:132.0) Gecko/20100101 Firefox/132.0" version="24.8.3">
  <diagram name="Page-1" id="L5yETP7GSh1OJhZzpPS1">
    <mxGraphModel dx="2390" dy="1288" grid="1" gridSize="10" guides="1" tooltips="1" connect="1" arrows="1" fold="1" page="1" pageScale="1" pageWidth="1400" pageHeight="850" math="0" shadow="0">
      <root>
        <mxCell id="0" />
        <mxCell id="1" parent="0" />
        <mxCell id="CpjFLnZGu2G8At4A_TET-2" value="" style="ellipse;whiteSpace=wrap;html=1;aspect=fixed;" vertex="1" parent="1">
          <mxGeometry x="255" y="100" width="80" height="80" as="geometry" />
        </mxCell>
        <mxCell id="CpjFLnZGu2G8At4A_TET-4" value="" style="edgeStyle=orthogonalEdgeStyle;rounded=0;orthogonalLoop=1;jettySize=auto;html=1;curved=0;" edge="1" parent="1" source="CpjFLnZGu2G8At4A_TET-3" target="CpjFLnZGu2G8At4A_TET-2">
          <mxGeometry relative="1" as="geometry" />
        </mxCell>
        <mxCell id="CpjFLnZGu2G8At4A_TET-3" value="" style="html=1;points=[[0,0,0,0,5],[0,1,0,0,-5],[1,0,0,0,5],[1,1,0,0,-5]];perimeter=orthogonalPerimeter;outlineConnect=0;targetShapes=umlLifeline;portConstraint=eastwest;newEdgeStyle={&quot;curved&quot;:0,&quot;rounded&quot;:0};fillColor=#141414;" vertex="1" parent="1">
          <mxGeometry x="155" y="100" width="10" height="80" as="geometry" />
        </mxCell>
        <mxCell id="CpjFLnZGu2G8At4A_TET-5" value="&lt;div&gt;Llega vino&lt;/div&gt;&lt;div&gt;blanco&lt;br&gt;&lt;/div&gt;" style="text;html=1;align=center;verticalAlign=middle;whiteSpace=wrap;rounded=0;" vertex="1" parent="1">
          <mxGeometry x="130" y="190" width="60" height="30" as="geometry" />
        </mxCell>
        <mxCell id="CpjFLnZGu2G8At4A_TET-14" value="" style="edgeStyle=orthogonalEdgeStyle;rounded=0;orthogonalLoop=1;jettySize=auto;html=1;" edge="1" parent="1" source="CpjFLnZGu2G8At4A_TET-6" target="CpjFLnZGu2G8At4A_TET-13">
          <mxGeometry relative="1" as="geometry" />
        </mxCell>
        <mxCell id="CpjFLnZGu2G8At4A_TET-6" value="" style="ellipse;whiteSpace=wrap;html=1;aspect=fixed;" vertex="1" parent="1">
          <mxGeometry x="255" y="540" width="80" height="80" as="geometry" />
        </mxCell>
        <mxCell id="CpjFLnZGu2G8At4A_TET-7" value="" style="edgeStyle=orthogonalEdgeStyle;rounded=0;orthogonalLoop=1;jettySize=auto;html=1;curved=0;" edge="1" parent="1" source="CpjFLnZGu2G8At4A_TET-8" target="CpjFLnZGu2G8At4A_TET-6">
          <mxGeometry relative="1" as="geometry" />
        </mxCell>
        <mxCell id="CpjFLnZGu2G8At4A_TET-8" value="" style="html=1;points=[[0,0,0,0,5],[0,1,0,0,-5],[1,0,0,0,5],[1,1,0,0,-5]];perimeter=orthogonalPerimeter;outlineConnect=0;targetShapes=umlLifeline;portConstraint=eastwest;newEdgeStyle={&quot;curved&quot;:0,&quot;rounded&quot;:0};fillColor=#141414;" vertex="1" parent="1">
          <mxGeometry x="155" y="540" width="10" height="80" as="geometry" />
        </mxCell>
        <mxCell id="CpjFLnZGu2G8At4A_TET-9" value="&lt;div&gt;Llega vino&lt;/div&gt;&lt;div&gt;tinto&lt;br&gt;&lt;/div&gt;" style="text;html=1;align=center;verticalAlign=middle;whiteSpace=wrap;rounded=0;" vertex="1" parent="1">
          <mxGeometry x="130" y="630" width="60" height="30" as="geometry" />
        </mxCell>
        <mxCell id="CpjFLnZGu2G8At4A_TET-10" value="&lt;div&gt;Deposito&lt;/div&gt;&lt;div&gt;de vinos&lt;br&gt;&lt;/div&gt;" style="text;html=1;align=center;verticalAlign=middle;whiteSpace=wrap;rounded=0;" vertex="1" parent="1">
          <mxGeometry x="265" y="200" width="60" height="30" as="geometry" />
        </mxCell>
        <mxCell id="CpjFLnZGu2G8At4A_TET-11" value="&lt;div&gt;Deposito&lt;/div&gt;&lt;div&gt;de vinos&lt;br&gt;&lt;/div&gt;" style="text;html=1;align=center;verticalAlign=middle;whiteSpace=wrap;rounded=0;" vertex="1" parent="1">
          <mxGeometry x="265" y="640" width="60" height="30" as="geometry" />
        </mxCell>
        <mxCell id="CpjFLnZGu2G8At4A_TET-12" value="" style="ellipse;whiteSpace=wrap;html=1;aspect=fixed;" vertex="1" parent="1">
          <mxGeometry x="570" y="345" width="80" height="80" as="geometry" />
        </mxCell>
        <mxCell id="CpjFLnZGu2G8At4A_TET-13" value="" style="html=1;points=[[0,0,0,0,5],[0,1,0,0,-5],[1,0,0,0,5],[1,1,0,0,-5]];perimeter=orthogonalPerimeter;outlineConnect=0;targetShapes=umlLifeline;portConstraint=eastwest;newEdgeStyle={&quot;curved&quot;:0,&quot;rounded&quot;:0};fillColor=#141414;" vertex="1" parent="1">
          <mxGeometry x="410" y="540" width="10" height="80" as="geometry" />
        </mxCell>
        <mxCell id="CpjFLnZGu2G8At4A_TET-15" value="&lt;div&gt;Se envia el vino al&lt;/div&gt;&lt;div&gt;operario&lt;br&gt;&lt;/div&gt;" style="text;html=1;align=center;verticalAlign=middle;whiteSpace=wrap;rounded=0;" vertex="1" parent="1">
          <mxGeometry x="385" y="640" width="60" height="30" as="geometry" />
        </mxCell>
        <mxCell id="CpjFLnZGu2G8At4A_TET-16" value="" style="edgeStyle=orthogonalEdgeStyle;rounded=0;orthogonalLoop=1;jettySize=auto;html=1;" edge="1" parent="1" target="CpjFLnZGu2G8At4A_TET-17">
          <mxGeometry relative="1" as="geometry">
            <mxPoint x="335" y="140" as="sourcePoint" />
          </mxGeometry>
        </mxCell>
        <mxCell id="CpjFLnZGu2G8At4A_TET-17" value="" style="html=1;points=[[0,0,0,0,5],[0,1,0,0,-5],[1,0,0,0,5],[1,1,0,0,-5]];perimeter=orthogonalPerimeter;outlineConnect=0;targetShapes=umlLifeline;portConstraint=eastwest;newEdgeStyle={&quot;curved&quot;:0,&quot;rounded&quot;:0};fillColor=#141414;" vertex="1" parent="1">
          <mxGeometry x="410" y="100" width="10" height="80" as="geometry" />
        </mxCell>
        <mxCell id="CpjFLnZGu2G8At4A_TET-18" value="&lt;div&gt;Se envia el vino al&lt;/div&gt;&lt;div&gt;operario&lt;br&gt;&lt;/div&gt;" style="text;html=1;align=center;verticalAlign=middle;whiteSpace=wrap;rounded=0;" vertex="1" parent="1">
          <mxGeometry x="385" y="200" width="60" height="30" as="geometry" />
        </mxCell>
        <mxCell id="CpjFLnZGu2G8At4A_TET-20" value="" style="endArrow=classic;html=1;rounded=0;exitX=1;exitY=1;exitDx=0;exitDy=-5;exitPerimeter=0;entryX=0.177;entryY=0.065;entryDx=0;entryDy=0;entryPerimeter=0;" edge="1" parent="1" target="CpjFLnZGu2G8At4A_TET-12">
          <mxGeometry width="50" height="50" relative="1" as="geometry">
            <mxPoint x="420" y="140" as="sourcePoint" />
            <mxPoint x="572" y="334" as="targetPoint" />
          </mxGeometry>
        </mxCell>
        <mxCell id="CpjFLnZGu2G8At4A_TET-23" value="" style="endArrow=classic;html=1;rounded=0;" edge="1" parent="1" target="CpjFLnZGu2G8At4A_TET-12">
          <mxGeometry width="50" height="50" relative="1" as="geometry">
            <mxPoint x="420" y="570" as="sourcePoint" />
            <mxPoint x="570" y="430" as="targetPoint" />
          </mxGeometry>
        </mxCell>
        <mxCell id="CpjFLnZGu2G8At4A_TET-25" value="&lt;div&gt;Almacen de vinos&lt;/div&gt;&lt;div&gt;en espera de operario&lt;br&gt;&lt;/div&gt;" style="text;html=1;align=center;verticalAlign=middle;whiteSpace=wrap;rounded=0;" vertex="1" parent="1">
          <mxGeometry x="580" y="460" width="60" height="30" as="geometry" />
        </mxCell>
        <mxCell id="CpjFLnZGu2G8At4A_TET-53" value="" style="edgeStyle=orthogonalEdgeStyle;rounded=0;orthogonalLoop=1;jettySize=auto;html=1;curved=0;" edge="1" parent="1" source="CpjFLnZGu2G8At4A_TET-26" target="CpjFLnZGu2G8At4A_TET-33">
          <mxGeometry relative="1" as="geometry" />
        </mxCell>
        <mxCell id="CpjFLnZGu2G8At4A_TET-26" value="" style="html=1;points=[[0,0,0,0,5],[0,1,0,0,-5],[1,0,0,0,5],[1,1,0,0,-5]];perimeter=orthogonalPerimeter;outlineConnect=0;targetShapes=umlLifeline;portConstraint=eastwest;newEdgeStyle={&quot;curved&quot;:0,&quot;rounded&quot;:0};fillColor=#141414;" vertex="1" parent="1">
          <mxGeometry x="740" y="200" width="10" height="80" as="geometry" />
        </mxCell>
        <mxCell id="CpjFLnZGu2G8At4A_TET-27" value="" style="edgeStyle=orthogonalEdgeStyle;rounded=0;orthogonalLoop=1;jettySize=auto;html=1;" edge="1" parent="1">
          <mxGeometry relative="1" as="geometry">
            <mxPoint x="335" y="590" as="sourcePoint" />
            <mxPoint x="410" y="590" as="targetPoint" />
          </mxGeometry>
        </mxCell>
        <mxCell id="CpjFLnZGu2G8At4A_TET-28" value="" style="edgeStyle=orthogonalEdgeStyle;rounded=0;orthogonalLoop=1;jettySize=auto;html=1;" edge="1" parent="1">
          <mxGeometry relative="1" as="geometry">
            <mxPoint x="335" y="570" as="sourcePoint" />
            <mxPoint x="410" y="570" as="targetPoint" />
          </mxGeometry>
        </mxCell>
        <mxCell id="CpjFLnZGu2G8At4A_TET-29" value="" style="edgeStyle=orthogonalEdgeStyle;rounded=0;orthogonalLoop=1;jettySize=auto;html=1;" edge="1" parent="1">
          <mxGeometry relative="1" as="geometry">
            <mxPoint x="335" y="130" as="sourcePoint" />
            <mxPoint x="410" y="130" as="targetPoint" />
          </mxGeometry>
        </mxCell>
        <mxCell id="CpjFLnZGu2G8At4A_TET-30" value="" style="edgeStyle=orthogonalEdgeStyle;rounded=0;orthogonalLoop=1;jettySize=auto;html=1;" edge="1" parent="1">
          <mxGeometry relative="1" as="geometry">
            <mxPoint x="335" y="150" as="sourcePoint" />
            <mxPoint x="410" y="150" as="targetPoint" />
          </mxGeometry>
        </mxCell>
        <mxCell id="CpjFLnZGu2G8At4A_TET-51" value="" style="edgeStyle=orthogonalEdgeStyle;rounded=0;orthogonalLoop=1;jettySize=auto;html=1;curved=0;" edge="1" parent="1" source="CpjFLnZGu2G8At4A_TET-31" target="CpjFLnZGu2G8At4A_TET-32">
          <mxGeometry relative="1" as="geometry" />
        </mxCell>
        <mxCell id="CpjFLnZGu2G8At4A_TET-31" value="" style="html=1;points=[[0,0,0,0,5],[0,1,0,0,-5],[1,0,0,0,5],[1,1,0,0,-5]];perimeter=orthogonalPerimeter;outlineConnect=0;targetShapes=umlLifeline;portConstraint=eastwest;newEdgeStyle={&quot;curved&quot;:0,&quot;rounded&quot;:0};fillColor=#141414;" vertex="1" parent="1">
          <mxGeometry x="740" y="470" width="10" height="80" as="geometry" />
        </mxCell>
        <mxCell id="CpjFLnZGu2G8At4A_TET-52" value="" style="edgeStyle=orthogonalEdgeStyle;rounded=0;orthogonalLoop=1;jettySize=auto;html=1;" edge="1" parent="1" source="CpjFLnZGu2G8At4A_TET-32" target="CpjFLnZGu2G8At4A_TET-34">
          <mxGeometry relative="1" as="geometry" />
        </mxCell>
        <mxCell id="CpjFLnZGu2G8At4A_TET-32" value="" style="ellipse;whiteSpace=wrap;html=1;aspect=fixed;" vertex="1" parent="1">
          <mxGeometry x="830" y="470" width="80" height="80" as="geometry" />
        </mxCell>
        <mxCell id="CpjFLnZGu2G8At4A_TET-76" value="" style="edgeStyle=orthogonalEdgeStyle;rounded=0;orthogonalLoop=1;jettySize=auto;html=1;" edge="1" parent="1" source="CpjFLnZGu2G8At4A_TET-33" target="CpjFLnZGu2G8At4A_TET-65">
          <mxGeometry relative="1" as="geometry" />
        </mxCell>
        <mxCell id="CpjFLnZGu2G8At4A_TET-33" value="" style="ellipse;whiteSpace=wrap;html=1;aspect=fixed;" vertex="1" parent="1">
          <mxGeometry x="830" y="200" width="80" height="80" as="geometry" />
        </mxCell>
        <mxCell id="CpjFLnZGu2G8At4A_TET-34" value="" style="html=1;points=[[0,0,0,0,5],[0,1,0,0,-5],[1,0,0,0,5],[1,1,0,0,-5]];perimeter=orthogonalPerimeter;outlineConnect=0;targetShapes=umlLifeline;portConstraint=eastwest;newEdgeStyle={&quot;curved&quot;:0,&quot;rounded&quot;:0};fillColor=#141414;" vertex="1" parent="1">
          <mxGeometry x="1000" y="470" width="10" height="80" as="geometry" />
        </mxCell>
        <mxCell id="CpjFLnZGu2G8At4A_TET-36" value="" style="endArrow=classic;html=1;rounded=0;exitX=0.75;exitY=0.075;exitDx=0;exitDy=0;exitPerimeter=0;" edge="1" parent="1" source="CpjFLnZGu2G8At4A_TET-12">
          <mxGeometry width="50" height="50" relative="1" as="geometry">
            <mxPoint x="980" y="320" as="sourcePoint" />
            <mxPoint x="730" y="240" as="targetPoint" />
          </mxGeometry>
        </mxCell>
        <mxCell id="CpjFLnZGu2G8At4A_TET-38" value="" style="endArrow=classic;html=1;rounded=0;exitX=0.823;exitY=0.93;exitDx=0;exitDy=0;exitPerimeter=0;" edge="1" parent="1" source="CpjFLnZGu2G8At4A_TET-12">
          <mxGeometry width="50" height="50" relative="1" as="geometry">
            <mxPoint x="640" y="361" as="sourcePoint" />
            <mxPoint x="730" y="510" as="targetPoint" />
          </mxGeometry>
        </mxCell>
        <mxCell id="CpjFLnZGu2G8At4A_TET-39" value="" style="ellipse;whiteSpace=wrap;html=1;aspect=fixed;" vertex="1" parent="1">
          <mxGeometry x="830" y="630" width="80" height="80" as="geometry" />
        </mxCell>
        <mxCell id="CpjFLnZGu2G8At4A_TET-40" value="" style="ellipse;whiteSpace=wrap;html=1;aspect=fixed;" vertex="1" parent="1">
          <mxGeometry x="830" y="50" width="80" height="80" as="geometry" />
        </mxCell>
        <mxCell id="CpjFLnZGu2G8At4A_TET-42" value="" style="endArrow=classic;html=1;rounded=0;entryX=1;entryY=0.5;entryDx=0;entryDy=0;" edge="1" parent="1" target="CpjFLnZGu2G8At4A_TET-40">
          <mxGeometry width="50" height="50" relative="1" as="geometry">
            <mxPoint x="1020" y="240" as="sourcePoint" />
            <mxPoint x="920" y="340" as="targetPoint" />
            <Array as="points">
              <mxPoint x="1060" y="170" />
            </Array>
          </mxGeometry>
        </mxCell>
        <mxCell id="CpjFLnZGu2G8At4A_TET-44" value="" style="endArrow=classic;html=1;rounded=0;exitX=0;exitY=0.5;exitDx=0;exitDy=0;" edge="1" parent="1" source="CpjFLnZGu2G8At4A_TET-40">
          <mxGeometry width="50" height="50" relative="1" as="geometry">
            <mxPoint x="870" y="390" as="sourcePoint" />
            <mxPoint x="730" y="220" as="targetPoint" />
            <Array as="points">
              <mxPoint x="680" y="180" />
            </Array>
          </mxGeometry>
        </mxCell>
        <mxCell id="CpjFLnZGu2G8At4A_TET-49" value="" style="endArrow=classic;html=1;rounded=0;entryX=1;entryY=0.5;entryDx=0;entryDy=0;" edge="1" parent="1" target="CpjFLnZGu2G8At4A_TET-39">
          <mxGeometry width="50" height="50" relative="1" as="geometry">
            <mxPoint x="1020" y="510" as="sourcePoint" />
            <mxPoint x="920" y="340" as="targetPoint" />
            <Array as="points">
              <mxPoint x="1070" y="560" />
            </Array>
          </mxGeometry>
        </mxCell>
        <mxCell id="CpjFLnZGu2G8At4A_TET-50" value="" style="endArrow=classic;html=1;rounded=0;exitX=0;exitY=0.5;exitDx=0;exitDy=0;" edge="1" parent="1" source="CpjFLnZGu2G8At4A_TET-39">
          <mxGeometry width="50" height="50" relative="1" as="geometry">
            <mxPoint x="870" y="390" as="sourcePoint" />
            <mxPoint x="730" y="530" as="targetPoint" />
            <Array as="points">
              <mxPoint x="670" y="560" />
            </Array>
          </mxGeometry>
        </mxCell>
        <mxCell id="CpjFLnZGu2G8At4A_TET-55" value="&lt;div&gt;Operario 2&lt;/div&gt;&lt;div&gt;libre&lt;br&gt;&lt;/div&gt;" style="text;html=1;align=center;verticalAlign=middle;whiteSpace=wrap;rounded=0;" vertex="1" parent="1">
          <mxGeometry x="840" y="740" width="60" height="30" as="geometry" />
        </mxCell>
        <mxCell id="CpjFLnZGu2G8At4A_TET-56" value="Guardando vinos en operario 2" style="text;html=1;align=center;verticalAlign=middle;whiteSpace=wrap;rounded=0;" vertex="1" parent="1">
          <mxGeometry x="840" y="565" width="60" height="30" as="geometry" />
        </mxCell>
        <mxCell id="CpjFLnZGu2G8At4A_TET-57" value="&lt;div&gt;Comienza&lt;/div&gt;&lt;div&gt;guardado&lt;br&gt;&lt;/div&gt;" style="text;html=1;align=center;verticalAlign=middle;whiteSpace=wrap;rounded=0;" vertex="1" parent="1">
          <mxGeometry x="715" y="425" width="60" height="30" as="geometry" />
        </mxCell>
        <mxCell id="CpjFLnZGu2G8At4A_TET-58" value="&lt;div&gt;Finaliza&lt;/div&gt;&lt;div&gt;guardado&lt;br&gt;&lt;/div&gt;" style="text;html=1;align=center;verticalAlign=middle;whiteSpace=wrap;rounded=0;" vertex="1" parent="1">
          <mxGeometry x="975" y="425" width="60" height="30" as="geometry" />
        </mxCell>
        <mxCell id="CpjFLnZGu2G8At4A_TET-61" value="&lt;div&gt;Operario 1&lt;/div&gt;&lt;div&gt;libre&lt;br&gt;&lt;/div&gt;" style="text;html=1;align=center;verticalAlign=middle;whiteSpace=wrap;rounded=0;" vertex="1" parent="1">
          <mxGeometry x="840" y="10" width="60" height="30" as="geometry" />
        </mxCell>
        <mxCell id="CpjFLnZGu2G8At4A_TET-62" value="Guardando vinos en operario 1" style="text;html=1;align=center;verticalAlign=middle;whiteSpace=wrap;rounded=0;" vertex="1" parent="1">
          <mxGeometry x="840" y="160" width="60" height="30" as="geometry" />
        </mxCell>
        <mxCell id="CpjFLnZGu2G8At4A_TET-63" value="&lt;div&gt;Comienza&lt;/div&gt;&lt;div&gt;guardado&lt;br&gt;&lt;/div&gt;" style="text;html=1;align=center;verticalAlign=middle;whiteSpace=wrap;rounded=0;" vertex="1" parent="1">
          <mxGeometry x="715" y="290" width="60" height="30" as="geometry" />
        </mxCell>
        <mxCell id="CpjFLnZGu2G8At4A_TET-64" value="&lt;div&gt;Finaliza&lt;/div&gt;&lt;div&gt;guardado&lt;br&gt;&lt;/div&gt;" style="text;html=1;align=center;verticalAlign=middle;whiteSpace=wrap;rounded=0;" vertex="1" parent="1">
          <mxGeometry x="985" y="290" width="60" height="30" as="geometry" />
        </mxCell>
        <mxCell id="CpjFLnZGu2G8At4A_TET-65" value="" style="html=1;points=[[0,0,0,0,5],[0,1,0,0,-5],[1,0,0,0,5],[1,1,0,0,-5]];perimeter=orthogonalPerimeter;outlineConnect=0;targetShapes=umlLifeline;portConstraint=eastwest;newEdgeStyle={&quot;curved&quot;:0,&quot;rounded&quot;:0};fillColor=#141414;" vertex="1" parent="1">
          <mxGeometry x="1010" y="200" width="10" height="80" as="geometry" />
        </mxCell>
        <mxCell id="CpjFLnZGu2G8At4A_TET-66" value="" style="ellipse;whiteSpace=wrap;html=1;aspect=fixed;" vertex="1" parent="1">
          <mxGeometry x="1120" y="330" width="80" height="80" as="geometry" />
        </mxCell>
        <mxCell id="CpjFLnZGu2G8At4A_TET-67" value="" style="endArrow=classic;html=1;rounded=0;entryX=0;entryY=1;entryDx=0;entryDy=0;" edge="1" parent="1" target="CpjFLnZGu2G8At4A_TET-66">
          <mxGeometry width="50" height="50" relative="1" as="geometry">
            <mxPoint x="1020" y="500" as="sourcePoint" />
            <mxPoint x="1130" y="360" as="targetPoint" />
          </mxGeometry>
        </mxCell>
        <mxCell id="CpjFLnZGu2G8At4A_TET-69" value="" style="endArrow=classic;html=1;rounded=0;entryX=0;entryY=0;entryDx=0;entryDy=0;" edge="1" parent="1" target="CpjFLnZGu2G8At4A_TET-66">
          <mxGeometry width="50" height="50" relative="1" as="geometry">
            <mxPoint x="1030" y="250" as="sourcePoint" />
            <mxPoint x="1130" y="360" as="targetPoint" />
          </mxGeometry>
        </mxCell>
        <mxCell id="CpjFLnZGu2G8At4A_TET-70" value="&lt;div&gt;Despachando&lt;/div&gt;&lt;div&gt;caja&lt;br&gt;&lt;/div&gt;" style="text;html=1;align=center;verticalAlign=middle;whiteSpace=wrap;rounded=0;" vertex="1" parent="1">
          <mxGeometry x="1130" y="420" width="60" height="30" as="geometry" />
        </mxCell>
        <mxCell id="CpjFLnZGu2G8At4A_TET-73" value="" style="html=1;points=[[0,0,0,0,5],[0,1,0,0,-5],[1,0,0,0,5],[1,1,0,0,-5]];perimeter=orthogonalPerimeter;outlineConnect=0;targetShapes=umlLifeline;portConstraint=eastwest;newEdgeStyle={&quot;curved&quot;:0,&quot;rounded&quot;:0};fillColor=#141414;" vertex="1" parent="1">
          <mxGeometry x="1300" y="330" width="10" height="80" as="geometry" />
        </mxCell>
        <mxCell id="CpjFLnZGu2G8At4A_TET-74" value="Caja despachada" style="text;html=1;align=center;verticalAlign=middle;whiteSpace=wrap;rounded=0;" vertex="1" parent="1">
          <mxGeometry x="1275" y="420" width="60" height="30" as="geometry" />
        </mxCell>
        <mxCell id="CpjFLnZGu2G8At4A_TET-75" value="" style="endArrow=classic;html=1;rounded=0;exitX=1;exitY=0.5;exitDx=0;exitDy=0;exitPerimeter=0;" edge="1" parent="1" source="CpjFLnZGu2G8At4A_TET-66" target="CpjFLnZGu2G8At4A_TET-73">
          <mxGeometry width="50" height="50" relative="1" as="geometry">
            <mxPoint x="1050" y="410" as="sourcePoint" />
            <mxPoint x="1100" y="360" as="targetPoint" />
          </mxGeometry>
        </mxCell>
        <mxCell id="CpjFLnZGu2G8At4A_TET-77" style="edgeStyle=orthogonalEdgeStyle;rounded=0;orthogonalLoop=1;jettySize=auto;html=1;exitX=0.5;exitY=1;exitDx=0;exitDy=0;" edge="1" parent="1" source="CpjFLnZGu2G8At4A_TET-64" target="CpjFLnZGu2G8At4A_TET-64">
          <mxGeometry relative="1" as="geometry" />
        </mxCell>
      </root>
    </mxGraphModel>
  </diagram>
</mxfile>
